<svg width="867.62" height="1535.3" version="1.1" viewBox="0 0 867.62 1535.3" xmlns="http://www.w3.org/2000/svg">
 <g transform="translate(2092.3 274.21)">
  <path d="m-2007.5 1260.3c0-0.4125 0.4839-2.4727 1.0686-4.5781 0.5846-2.1055 1.7114-6.8305 2.5039-10.5 6.5516-30.334 8.5521-39.526 9.8319-45.172 9.4802-41.826 13.954-61.696 16.663-74 5.1586-23.436 18.234-37.874 38.446-42.452 6.2896-1.4247 34.419-1.5549 283.98-1.3146l277 0.2668 5.7487 2.1957c7.8593 3.0018 15.928 8.5399 20.593 14.134 7.8045 9.3593 9.3791 14.147 19.131 58.17 2.7413 12.375 6.3478 28.35 8.0146 35.5 1.6667 7.15 4.8295 21.1 7.0285 31 2.1989 9.9 5.0425 22.165 6.3191 27.255s2.0985 9.478 1.8265 9.75c-0.8136 0.8136-698.16 0.5585-698.16-0.2554zm54.117-230.99c-3.5217-26.262-19.034-114.3-25.203-143.04-9.5557-44.515-22.812-98.767-31.45-128.71-2.5384-8.8-4.9824-17.35-5.4311-19-0.4488-1.65-3.7784-12.719-7.3992-24.598-17.652-57.912-37.317-111.92-57.133-156.9-7.8602-17.844-9.7585-23.608-11.425-34.692-2.2373-14.88-0.328-30.957 5.3333-44.907 2.6364-6.4964 14.148-26.221 16.576-28.401 0.3062-0.275 3.6628-5.225 7.4592-11s10.073-15.225 13.948-21c40.123-59.801 57.222-86.016 80.225-123 7.0129-11.275 14.929-23.76 17.591-27.744 7.233-10.826 61.787-101.6 61.787-102.81 0-0.29021 0.8296-1.7469 1.8436-3.2372 4.2683-6.2733 7.1871-11.192 11.399-19.21 2.4558-4.675 9.7729-17.95 16.26-29.5 29.528-52.572 60.142-112.23 84.063-163.81 6.839-14.748 12.434-27.017 12.434-27.264s2.9873-7.0801 6.6384-15.185c3.6511-8.105 8.5541-19.686 10.896-25.736s7.9158-20.333 12.388-31.739l8.1304-20.739-2.0089-3.9378c-6.1948-12.143-8.3283-33.354-4.736-47.084 3.6031-13.772 12.844-28.155 23.451-36.502 6.2135-4.8891 19.757-11.932 24.992-12.997l3.25-0.66086v649.89l-4.6026 0.6308c-2.5314 0.347-10.164 2.4803-16.961 4.7407-36.238 12.051-65.145 38.332-80.182 72.9-8.2795 19.033-11.598 34.921-11.59 55.5 0.01 24.393 6.2892 47.347 19.016 69.5 12.027 20.936 32.602 40.689 55.621 53.399l6.7997 3.7546-0.5679 4.1733c-1.7851 13.117-10.815 75.161-12.541 86.173-1.121 7.15-2.722 18.175-3.5578 24.5s-3.4984 25.225-5.9168 42-6.9036 48.5-9.9672 70.5c-3.0635 22-6.2127 44.275-6.9982 49.5-2.3494 15.628-9.4183 64.503-13.885 96l-4.1834 29.5-183.05 0.5104zm405.83 9.4948c-0.027-0.1375-2.4791-16.9-5.4497-37.25-13.969-95.695-21.694-149.26-23.506-163-1.0882-8.25-3.3509-24.225-5.0281-35.5s-3.7388-25.45-4.5813-31.5-3.3254-23.375-5.5176-38.5c-6.0308-41.61-13.869-96.157-13.869-96.518 0-0.1762 3.7432-2.3607 8.3181-4.8545 29.57-16.118 54.353-45.16 65.493-76.747 10.095-28.623 10.452-59.356 1.0256-88.337-8.3456-25.657-25.557-49.383-48.466-66.811-12.738-9.6899-35.151-19.724-51.409-23.014l-6.4626-1.308-0.2515-324.83-0.2515-324.83 3.2515 0.64926c5.0431 1.007 15.412 6.1776 22.145 11.043 9.855 7.1215 15.413 13.931 21.692 26.575 8.4609 17.04 8.599 41.832 0.324 58.162l-2.4436 4.8222 12.548 31.749c6.9013 17.462 14.521 36.024 16.932 41.249 2.4114 5.225 5.5194 12.425 6.9068 16 1.3873 3.575 5.8675 13.7 9.9558 22.5 4.0884 8.8 8.5656 18.475 9.9494 21.5 20.267 44.302 71.143 141.17 99.266 189 3.7189 6.325 8.3287 14.425 10.244 18 1.9152 3.575 5.3923 9.65 7.7271 13.5 2.3347 3.85 6.891 11.477 10.125 16.95 3.2341 5.4724 6.877 11.547 8.0954 13.5s3.8241 6.2501 5.7905 9.5501c1.9663 3.3 5.4082 8.925 7.6487 12.5 2.2404 3.575 7.0934 11.45 10.784 17.5 3.6909 6.05 9.3315 15.05 12.535 20 8.6237 13.327 9.8126 15.197 15.668 24.647 10.912 17.611 12.958 20.83 27.552 43.353 16.148 24.921 24.925 38.139 53.649 80.797 10.295 15.288 18.409 28.295 18.033 28.904-0.4023 0.651-0.23 0.8268 0.418 0.4263 1.2032-0.7436 10.753 13.201 15.322 22.372 9.893 19.86 11.377 43.53 4.1669 66.462-2.3326 7.4186-3.8645 11.21-9.7122 24.038-1.2535 2.75-3.2775 7.475-4.4977 10.5-1.2201 3.025-5.5096 13.6-9.5321 23.5s-8.6638 21.825-10.314 26.5c-1.6502 4.675-4.5799 12.775-6.5104 18-8.4215 22.792-12.074 33.882-23.219 70.5-2.0087 6.6-4.0484 13.125-4.5325 14.5-5.6981 16.182-27.229 99.044-34.429 132.5-1.4204 6.6-3.6898 16.95-5.0432 23-2.148 9.6022-4.3042 19.898-7.6439 36.5-2.9048 14.44-11.376 65.133-15.373 92-1.3503 9.075-2.9817 19.538-3.6254 23.25l-1.1703 6.75h-91.34c-50.237 0-91.362-0.1125-91.388-0.25z"/>
 </g>
</svg>
